<?xml version="1.0" encoding="utf-8"?>
<!-- Generator: Adobe Illustrator 25.2.0, SVG Export Plug-In . SVG Version: 6.00 Build 0)  -->
<svg version="1.1" id="Laag_1" xmlns="http://www.w3.org/2000/svg" xmlns:xlink="http://www.w3.org/1999/xlink" x="0px" y="0px"
	 viewBox="0 0 45.4 45.4" style="enable-background:new 0 0 45.4 45.4;" xml:space="preserve">
<style type="text/css">
	.st0{fill:#003C7D;}
</style>
<g>
	<path class="st0" d="M34.9,41.6c-5,0-7.6-2.5-7.6-7.4c0-4.7,2.9-7.7,7.5-7.7c2.3,0,3.1,0.4,3.8,0.7l0.3,0.1l0,3.2l-1,0
		c-0.5-1.3-1.2-2.5-3.2-2.5c-3.4,0-5.3,2.1-5.3,6c0,3.8,2.1,5.9,5.9,5.9c1.8,0,2.7-0.6,3.3-0.8l0.5,1.2C39,40.4,37.4,41.6,34.9,41.6
		z"/>
	<path class="st0" d="M16.8,18.6h-11c-0.1-0.3-0.1-0.7-0.1-1L7,17.2c0.5-0.1,0.8-0.6,0.8-1.2l0.1-3.1V6.5c0-0.5-0.2-1.1-0.6-1.3
		L6,4.8C6,4.6,6,4.2,6,4h5.4c0.1,0.3,0.1,0.6,0.1,0.9l-1,0.2C10,5.2,9.8,5.3,9.8,5.9v7l0.1,4.2l4-0.1c1.3,0,2.1-1,2.5-2l0.9,0.1
		L16.8,18.6z"/>
	<path class="st0" d="M22.7,0v22.7h22.7V0H22.7z M40.4,5.2c-0.3,0.1-0.6,0.2-0.6,0.8v7c0,4.3-3.2,5.7-5.7,5.7c-2.8,0-5.7-1-5.7-5.2
		V6.4c0-0.5-0.2-0.9-0.6-1.1l-1.3-0.4c0-0.2,0-0.6,0.1-0.8h5.5c0.1,0.3,0.1,0.7,0,0.9L31,5.2c-0.4,0.1-0.5,0.3-0.5,0.7v7.6
		c0,2.9,2,3.9,3.8,3.9c2.2,0,3.8-1.1,3.8-4.4V6.5c0-0.7-0.2-1.1-1.1-1.4L36,4.9c0-0.2,0-0.6,0-0.8h5.4c0.1,0.3,0.1,0.6,0.1,0.9
		L40.4,5.2z"/>
	<path class="st0" d="M0,22.7v22.7h22.7V22.7H0z M19.5,41.1h-4.8c0-0.3-0.1-0.6-0.1-0.9l0.8-0.3c0.6-0.2,0.7-0.7,0.7-1.4
		c0-0.2,0-0.5-0.1-0.8l-0.2-6.7l-0.1-1.1h-0.1l-4,8.5l-1.3,0l-3.5-8.7H6.7l0,1l-0.7,8c-0.1,0.4,0,0.6,0.2,0.6L8,40.2
		c0,0.2,0,0.7-0.1,0.9H3.1C3,40.8,3,40.5,3,40.2l0.7-0.4c0.5-0.3,0.9-0.9,1-1.6l0.9-9c0.1-0.5-0.2-1-0.5-1.1l-1.2-0.4
		c0-0.2,0-0.6,0.1-0.8h3.7l3.5,9h0.2l4.1-9h3.5c0.1,0.3,0.1,0.5,0.1,0.8L18,28.1c-0.5,0.2-0.8,0.7-0.7,1.6l0.7,9.1
		c0.1,0.4,0.4,0.9,0.7,1l0.8,0.4C19.5,40.4,19.5,40.9,19.5,41.1z"/>
</g>
</svg>
