<?xml version="1.0" encoding="utf-8"?>
<!-- Generator: Adobe Illustrator 25.2.0, SVG Export Plug-In . SVG Version: 6.00 Build 0)  -->
<svg version="1.1" id="Layer_3" xmlns="http://www.w3.org/2000/svg" xmlns:xlink="http://www.w3.org/1999/xlink" x="0px" y="0px"
	 viewBox="0 0 595.3 841.9" style="enable-background:new 0 0 595.3 841.9;" xml:space="preserve">
<style type="text/css">
	.st0{fill:#A9B533;}
</style>
<path class="st0" d="M204.9,199.5c-5.8,0-5.8-4.4-5.8-5.8v-10.5h1.9v10.7c0,2.4,1.1,4,4.4,4c2.5,0,3.7-2.4,3.7-4.6v-10.1h1.9v10.2
	C211.1,195.4,210.3,199.5,204.9,199.5z M221.4,199.2h-1.9v-16h1.7l8.1,11.6c0.3,0.5,0.6,1.2,0.6,1.2v-12.8h1.9v16h-1.7l-8-11.3
	c-0.3-0.4-0.7-1.3-0.7-1.3V199.2z M242.1,199.2h-1.9v-16h1.9V199.2z M251.5,183.2l4.5,12.6c0.1,0.2,0.2,0.7,0.2,0.7
	c0-0.2,0.1-0.5,0.2-0.8l4.5-12.6h2.1l-5.9,16h-2l-5.9-16H251.5z M270.1,183.2h9.7v1.7H272v4.9h6.3v1.7H272v6h8l0.3,1.7h-10.2V183.2z
	 M292.2,184.9h-2.6v14.3h-1.9v-16h4.8c4.2,0,5.4,1.7,5.4,4.7c0,2-0.9,3.8-3.3,4.7l4.2,6.6h-2.2l-4.8-7.7c3.3,0,4.2-1.8,4.2-3.5
	C296,186.1,295.3,184.9,292.2,184.9z M305.7,196.3c1,0.7,2.5,1.6,5,1.6c2.5,0,3.5-1.3,3.5-2.9c0-1.6-1.2-2.2-3.7-3.2
	c-2.9-1.2-4.7-2.1-4.7-4.5c0-2.7,1.7-4.5,5.2-4.5c2.4,0,4.1,1,4.7,1.5l-0.8,1.4c-0.6-0.6-1.9-1.4-3.9-1.4c-2.5,0-3.3,1.3-3.3,2.8
	c0,1.2,1.5,2.1,3.9,3c2.5,1,4.4,2,4.4,4.7c0,2.9-1.8,4.5-5.4,4.5c-2.9,0-4.6-0.9-5.7-1.6L305.7,196.3z M325.6,199.2h-1.9v-16h1.9
	V199.2z M343.7,184.9h-4.4v14.3h-1.9v-14.3H333v-1.7h10.7V184.9z M363.2,183.2l-5.6,9.5v6.5h-1.9v-6.5l-5.6-9.5h2.2l4.4,7.6l4.4-7.6
	H363.2z M387.5,199.5c-5.7,0-6.7-3.8-6.7-8.3c0-4.6,1.7-8.3,7.1-8.3c5.7,0,6.7,3.4,6.7,8.3C394.6,195.9,392.9,199.5,387.5,199.5z
	 M387.5,184.6c-2.9,0-4.8,2.1-4.8,6.8c0,4.8,1.9,6.5,5.3,6.5c2.5,0,4.6-2.1,4.6-6.8C392.6,186.5,390.9,184.6,387.5,184.6z
	 M402.4,183.2h9.7v1.7h-7.8v4.9h6.3v1.7h-6.3v7.7h-1.9V183.2z M201.2,228.6l-1.5,4.4h-2.1l6-16h2l5.7,16h-2.2l-1.5-4.4H201.2z
	 M207,226.9l-2.3-6.7c-0.2-0.6-0.3-1.4-0.3-1.4s0,0.7-0.3,1.4l-2.4,6.7H207z M223,218.7h-2.7V233h-1.9v-16h4.9
	c4.2,0,5.4,1.7,5.4,4.7c0,2.8-1.7,5.2-6.6,5.2h-0.1v-1.7h0.2c3.7,0,4.5-1.8,4.5-3.5C226.8,219.9,226.1,218.7,223,218.7z
	 M240.9,218.7h-2.7V233h-1.9v-16h4.9c4.2,0,5.4,1.7,5.4,4.7c0,2.8-1.7,5.2-6.6,5.2h-0.1v-1.7h0.2c3.7,0,4.5-1.8,4.5-3.5
	C244.7,219.9,244,218.7,240.9,218.7z M256.1,231.3h7.1l0.2,1.7h-9.2v-16h1.9V231.3z M272.6,233h-1.9v-16h1.9V233z M281,217h9.7v1.7
	H283v4.9h6.3v1.7H283v6h8l0.3,1.7H281V217z M298.6,217h5.2c5.7,0,6.8,3.1,6.8,8c0,4.7-1.8,8-7.2,8h-4.8V217z M300.5,231.3h3.4
	c2.5,0,4.8-1.7,4.8-6.4c0-4.6-1.7-6.1-5.1-6.1h-3V231.3z M329.3,230.1c1,0.7,2.5,1.6,5,1.6c2.5,0,3.5-1.3,3.5-2.9
	c0-1.6-1.2-2.2-3.7-3.2c-2.9-1.2-4.7-2.1-4.7-4.5c0-2.7,1.7-4.5,5.2-4.5c2.4,0,4.1,1,4.7,1.5l-0.8,1.4c-0.6-0.6-1.9-1.4-3.9-1.4
	c-2.5,0-3.3,1.3-3.3,2.8c0,1.2,1.5,2.1,3.9,3c2.5,1,4.4,2,4.4,4.7c0,2.9-1.8,4.5-5.4,4.5c-2.9,0-4.6-0.9-5.7-1.6L329.3,230.1z
	 M357.1,219.4c-0.8-0.6-1.7-1-3.4-1c-3.1,0-5,2.1-5,6.8c0,4.8,1.9,6.5,4.8,6.5c1.6,0,3-0.7,4-1.7l1.1,1.3c-1.1,1.1-2.6,2-5.3,2
	c-5.8,0-6.6-3.8-6.6-8.3c0-4.6,1.6-8.3,7.3-8.3c1.9,0,3.2,0.6,4.1,1.2L357.1,219.4z M367.9,233H366v-16h1.9V233z M376.3,217h9.7v1.7
	h-7.8v4.9h6.3v1.7h-6.3v6h8l0.3,1.7h-10.2V217z M395.9,233h-1.9v-16h1.7l8.1,11.6c0.3,0.5,0.6,1.2,0.6,1.2V217h1.9v16h-1.7l-8-11.3
	c-0.3-0.4-0.7-1.3-0.7-1.3V233z M424.3,219.4c-0.8-0.6-1.7-1-3.4-1c-3.1,0-5,2.1-5,6.8c0,4.8,1.9,6.5,4.8,6.5c1.6,0,3-0.7,4-1.7
	l1.1,1.3c-1.1,1.1-2.6,2-5.3,2c-5.8,0-6.6-3.8-6.6-8.3c0-4.6,1.6-8.3,7.3-8.3c1.9,0,3.2,0.6,4.1,1.2L424.3,219.4z M433.1,217h9.7
	v1.7h-7.8v4.9h6.3v1.7h-6.3v6h8l0.3,1.7h-10.2V217z M450.7,230.1c1,0.7,2.5,1.6,5,1.6c2.5,0,3.5-1.3,3.5-2.9c0-1.6-1.2-2.2-3.7-3.2
	c-2.9-1.2-4.7-2.1-4.7-4.5c0-2.7,1.7-4.5,5.2-4.5c2.4,0,4.1,1,4.7,1.5l-0.8,1.4c-0.6-0.6-1.9-1.4-3.9-1.4c-2.5,0-3.3,1.3-3.3,2.8
	c0,1.2,1.5,2.1,3.9,3c2.5,1,4.4,2,4.4,4.7c0,2.9-1.8,4.5-5.4,4.5c-2.9,0-4.6-0.9-5.7-1.6L450.7,230.1z M159.2,165.2h-11v-46.6h11v18
	h16.4v-18h11v46.6h-11v-19.7h-16.4V165.2z M285.5,129.4c-2.7-2-5.8-3.6-11.4-3.6c-6.3,0-10.3,5.8-10.3,16.7
	c0,11.1,4.2,15.5,11.8,15.5c2.9,0,5.2-1.5,6.8-3v-7.8h-11.7v-8.1h22.8v18.3c-3,3.8-8.2,8.8-19.4,8.8c-18.5,0-21.4-11.3-21.4-24.4
	c0-13.3,5.3-24.4,22.5-24.4c7.1,0,12,2.5,15.5,4.7L285.5,129.4z M327.7,166c-18.8,0-18.8-13.2-18.8-17.6v-29.8h11V149
	c0,4.9,2.2,8.3,9.3,8.3c5,0,7.5-5.1,7.5-9.9v-28.8h11v29.2C347.7,153.7,345.2,166,327.7,166z M365.2,118.6h32.7v8.3h-21.5v9.5h17.4
	v8.1h-17.4v12.4h21.7l1.2,8.3h-34.1V118.6z M197.3,165.3h12l16.4-47h-10L197.3,165.3z M225.5,147.6h-4.8l-3,8.6H228l3.1,9.1h12.6
	l-15.2-39.7l-5.3,15.1L225.5,147.6z M103.9,118.6h18.8v4.8h-12.4v5.4h10v4.6h-10v7.1h12.5l0.7,4.8h-19.6V118.6z M60.7,123.4h-7v22
	h-6.3v-22h-7v-4.8h20.3V123.4z M76.4,145.4h-6.3v-26.8h6.3V129h9.4v-10.4h6.3v26.8h-6.3v-11.3h-9.4V145.4z"/>
</svg>
